<svg width="50" height="50" viewBox="0 0 50 50" fill="none" xmlns="http://www.w3.org/2000/svg">
<path fill-rule="evenodd" clip-rule="evenodd" d="M6.25008 4.16669C7.40067 4.16669 8.33342 5.09943 8.33342 6.25002V41.6667H43.7501C44.9007 41.6667 45.8334 42.5994 45.8334 43.75C45.8334 44.9006 44.9007 45.8334 43.7501 45.8334H6.25008C5.09949 45.8334 4.16675 44.9006 4.16675 43.75V6.25002C4.16675 5.09943 5.09949 4.16669 6.25008 4.16669Z" fill="#D2353B"/>
<path fill-rule="evenodd" clip-rule="evenodd" d="M38.1102 17.2769C38.9238 16.4633 40.2429 16.4633 41.0565 17.2769C41.8701 18.0905 41.8701 19.4096 41.0565 20.2232L30.6398 30.6398C29.8262 31.4534 28.5071 31.4534 27.6935 30.6398L20.8333 23.7796L16.0565 28.5565C15.2429 29.3701 13.9238 29.3701 13.1102 28.5565C12.2966 27.7429 12.2966 26.4238 13.1102 25.6102L19.3602 19.3602C20.1738 18.5466 21.4929 18.5466 22.3065 19.3602L29.1667 26.2204L38.1102 17.2769Z" fill="#D2353B"/>
</svg>
