<svg width="50" height="50" viewBox="0 0 50 50" fill="none" xmlns="http://www.w3.org/2000/svg">
<path d="M25.0001 4.16669C13.5126 4.16669 4.16675 13.5125 4.16675 25V33.6313C4.16675 35.7646 6.0355 37.5 8.33342 37.5H10.4167C10.9693 37.5 11.4992 37.2805 11.8899 36.8898C12.2806 36.4991 12.5001 35.9692 12.5001 35.4167V24.7021C12.5001 24.1496 12.2806 23.6197 11.8899 23.229C11.4992 22.8383 10.9693 22.6188 10.4167 22.6188H8.52508C9.68341 14.5563 16.6209 8.33335 25.0001 8.33335C33.3792 8.33335 40.3168 14.5563 41.4751 22.6188H39.5834C39.0309 22.6188 38.501 22.8383 38.1103 23.229C37.7196 23.6197 37.5001 24.1496 37.5001 24.7021V37.5C37.5001 39.7979 35.6313 41.6667 33.3334 41.6667H29.1667V39.5834H20.8334V45.8334H33.3334C37.9293 45.8334 41.6668 42.0959 41.6668 37.5C43.9647 37.5 45.8334 35.7646 45.8334 33.6313V25C45.8334 13.5125 36.4876 4.16669 25.0001 4.16669Z" fill="#D2353B"/>
</svg>
