<svg width="50" height="50" viewBox="0 0 50 50" fill="none" xmlns="http://www.w3.org/2000/svg">
<path d="M21.875 39.0625H15.625C15.2106 39.0625 14.8132 39.2271 14.5201 39.5201C14.2271 39.8132 14.0625 40.2106 14.0625 40.625C14.0625 41.0394 14.2271 41.4368 14.5201 41.7299C14.8132 42.0229 15.2106 42.1875 15.625 42.1875H21.875C22.2894 42.1875 22.6868 42.0229 22.9799 41.7299C23.2729 41.4368 23.4375 41.0394 23.4375 40.625C23.4375 40.2106 23.2729 39.8132 22.9799 39.5201C22.6868 39.2271 22.2894 39.0625 21.875 39.0625Z" fill="#D2353B"/>
<path d="M34.8328 16.7296L35.2906 17.1874L29.6875 17.1874C29.2731 17.1874 28.8757 17.352 28.5826 17.645C28.2896 17.938 28.125 18.3355 28.125 18.7499C28.125 19.1643 28.2896 19.5617 28.5826 19.8547C28.8757 20.1478 29.2731 20.3124 29.6875 20.3124L39.0625 20.3124C39.3715 20.3123 39.6735 20.2206 39.9304 20.0489C40.1873 19.8772 40.3875 19.6332 40.5057 19.3478C40.624 19.0623 40.6549 18.7482 40.5947 18.4451C40.5344 18.1421 40.3856 17.8637 40.1672 17.6452L37.0422 14.5202C36.7475 14.2356 36.3528 14.0781 35.9431 14.0816C35.5334 14.0852 35.1415 14.2495 34.8518 14.5392C34.5621 14.8289 34.3978 15.2208 34.3943 15.6305C34.3907 16.0402 34.5482 16.4349 34.8328 16.7296Z" fill="#D2353B"/>
<path d="M28.2443 24.4018C28.1258 24.6873 28.0947 25.0015 28.155 25.3046C28.2153 25.6078 28.3643 25.8862 28.583 26.1046L31.708 29.2296C32.0027 29.5142 32.3974 29.6717 32.8071 29.6682C33.2168 29.6646 33.6087 29.5003 33.8984 29.2106C34.1881 28.9209 34.3524 28.529 34.3559 28.1193C34.3595 27.7096 34.202 27.3149 33.9174 27.0202L33.4596 26.5624L39.0627 26.5624C39.4771 26.5624 39.8745 26.3978 40.1676 26.1048C40.4606 25.8117 40.6252 25.4143 40.6252 24.9999C40.6252 24.5855 40.4606 24.1881 40.1676 23.8951C39.8745 23.602 39.4771 23.4374 39.0627 23.4374L29.6877 23.4374C29.3787 23.4374 29.0767 23.529 28.8197 23.7007C28.5628 23.8724 28.3625 24.1163 28.2443 24.4018Z" fill="#D2353B"/>
<path d="M35.7938 7.95594C35.4621 6.16301 34.5139 4.5425 33.1135 3.37492C31.713 2.20734 29.9483 1.5662 28.125 1.5625H9.375C7.30376 1.56498 5.31806 2.38888 3.85347 3.85347C2.38888 5.31806 1.56498 7.30376 1.5625 9.375V40.625C1.56498 42.6962 2.38888 44.6819 3.85347 46.1465C5.31806 47.6111 7.30376 48.435 9.375 48.4375H28.125C30.1962 48.435 32.1819 47.6111 33.6465 46.1465C35.1111 44.6819 35.935 42.6962 35.9375 40.625V35.7812C39.3823 35.4139 42.5681 33.7808 44.8776 31.1986C47.187 28.6163 48.4557 25.2687 48.4378 21.8044C48.4199 18.3401 47.1167 15.0058 44.7807 12.4476C42.4447 9.88931 39.2422 8.28927 35.7938 7.9575V7.95594ZM28.125 45.3125H9.375C8.13223 45.3111 6.94076 44.8168 6.06199 43.938C5.18322 43.0592 4.68891 41.8678 4.6875 40.625V9.375C4.68891 8.13223 5.18322 6.94076 6.06199 6.06199C6.94076 5.18322 8.13223 4.68891 9.375 4.6875H28.125C29.1233 4.69103 30.0943 5.01382 30.896 5.6087C31.6978 6.20357 32.2882 7.03932 32.5809 7.99375C29.1735 8.41334 26.0394 10.0717 23.7757 12.6528C21.5119 15.234 20.2767 18.5577 20.3053 21.9908C20.334 25.4238 21.6244 28.7265 23.9308 31.2696C26.2372 33.8126 29.3985 35.4185 32.8125 35.7812V40.625C32.8111 41.8678 32.3168 43.0592 31.438 43.938C30.5592 44.8168 29.3678 45.3111 28.125 45.3125ZM34.375 32.8125C32.2118 32.8125 30.0971 32.171 28.2984 30.9692C26.4998 29.7674 25.0979 28.0592 24.2701 26.0606C23.4422 24.062 23.2256 21.8629 23.6477 19.7412C24.0697 17.6195 25.1114 15.6707 26.641 14.141C28.1707 12.6114 30.1195 11.5697 32.2412 11.1477C34.3629 10.7256 36.562 10.9422 38.5606 11.7701C40.5592 12.5979 42.2674 13.9998 43.4692 15.7985C44.671 17.5971 45.3125 19.7118 45.3125 21.875C45.309 24.7747 44.1556 27.5547 42.1051 29.6051C40.0547 31.6556 37.2747 32.809 34.375 32.8125Z" fill="#D2353B"/>
</svg>
