<svg width="118" height="80" viewBox="0 0 118 80" fill="none" xmlns="http://www.w3.org/2000/svg">
<path d="M108.422 78.5352C108.771 79.2011 108.288 80 107.536 80H84.5974C84.2257 80 83.8847 79.7939 83.712 79.4648L67.309 48.2183C67.2338 48.0749 67.1944 47.9154 67.1944 47.7535V0.999999C67.1944 0.447714 67.6422 0 68.1944 0H116.59C117.142 0 117.59 0.447715 117.59 1V47C117.59 47.5523 117.142 48 116.59 48H94.0465C93.2945 48 92.8115 48.7989 93.1611 49.4648L108.422 78.5352ZM41.2278 78.5352C41.5773 79.2011 41.0944 80 40.3424 80H17.4035C17.0318 80 16.6908 79.7939 16.5181 79.4648L0.115158 48.2183C0.0398941 48.0749 0.000572205 47.9154 0.000572205 47.7535V0.999999C0.000572205 0.447714 0.448288 0 1.00057 0H49.396C49.9483 0 50.396 0.447715 50.396 1V47C50.396 47.5523 49.9483 48 49.396 48H26.8526C26.1006 48 25.6177 48.7989 25.9672 49.4648L41.2278 78.5352Z" fill="#FF9C9F"/>
</svg>
