<svg width="50" height="50" viewBox="0 0 50 50" fill="none" xmlns="http://www.w3.org/2000/svg">
<path d="M21.875 42.1875C23.7136 42.1655 25.5404 41.8896 27.3034 41.3675C27.9467 43.0758 29.0081 44.5956 30.3905 45.7877C31.7729 46.9799 33.4321 47.8064 35.2164 48.1916C37.0007 48.5768 38.8531 48.5085 40.6042 47.9928C42.3553 47.4772 43.9491 46.5307 45.2399 45.2399C46.5307 43.9491 47.4772 42.3553 47.9928 40.6042C48.5085 38.8531 48.5768 37.0007 48.1916 35.2164C47.8064 33.4321 46.9799 31.7729 45.7877 30.3905C44.5956 29.0081 43.0758 27.9467 41.3675 27.3034C41.8896 25.5404 42.1655 23.7136 42.1875 21.875C42.1875 17.8576 40.9962 13.9304 38.7642 10.59C36.5323 7.24962 33.3599 4.64611 29.6483 3.10871C25.9366 1.5713 21.8525 1.16905 17.9122 1.95281C13.972 2.73657 10.3527 4.67115 7.5119 7.5119C4.67115 10.3527 2.73657 13.972 1.95281 17.9122C1.16905 21.8525 1.5713 25.9366 3.10871 29.6483C4.64611 33.3599 7.24962 36.5323 10.59 38.7642C13.9304 40.9962 17.8576 42.1875 21.875 42.1875ZM45.3125 37.5C45.3125 39.0452 44.8543 40.5556 43.9959 41.8404C43.1374 43.1252 41.9173 44.1265 40.4897 44.7178C39.0622 45.3091 37.4913 45.4638 35.9759 45.1624C34.4604 44.861 33.0683 44.1169 31.9757 43.0243C30.8831 41.9317 30.1391 40.5396 29.8376 39.0242C29.5362 37.5087 29.6909 35.9378 30.2822 34.5103C30.8735 33.0827 31.8749 31.8626 33.1596 31.0042C34.4444 30.1457 35.9548 29.6875 37.5 29.6875C39.5713 29.69 41.557 30.5139 43.0215 31.9785C44.4861 33.4431 45.31 35.4288 45.3125 37.5ZM21.875 4.68751C26.4318 4.69264 30.8006 6.50511 34.0227 9.72728C37.2449 12.9494 39.0574 17.3182 39.0625 21.875C39.0456 23.4926 38.7955 25.0994 38.32 26.6456C38.0444 26.625 37.7813 26.5625 37.5 26.5625C34.6003 26.566 31.8203 27.7194 29.7699 29.7699C27.7194 31.8203 26.566 34.6003 26.5625 37.5C26.5625 37.7813 26.625 38.0444 26.6456 38.32C25.0994 38.7955 23.4926 39.0456 21.875 39.0625C17.3166 39.0625 12.9449 37.2517 9.72161 34.0284C6.49833 30.8051 4.68751 26.4334 4.68751 21.875C4.68751 17.3166 6.49833 12.9449 9.72161 9.72161C12.9449 6.49833 17.3166 4.68751 21.875 4.68751Z" fill="#D2353B"/>
<path d="M23.2146 25.67H17.8574C17.443 25.67 17.0456 25.8346 16.7526 26.1276C16.4595 26.4206 16.2949 26.8181 16.2949 27.2325C16.2949 27.6469 16.4595 28.0443 16.7526 28.3373C17.0456 28.6304 17.443 28.795 17.8574 28.795H20.3124V29.9103C20.3124 30.3247 20.477 30.7221 20.7701 31.0151C21.0631 31.3082 21.4605 31.4728 21.8749 31.4728C22.2893 31.4728 22.6868 31.3082 22.9798 31.0151C23.2728 30.7221 23.4374 30.3247 23.4374 29.9103V28.7725C24.5401 28.7156 25.5769 28.2301 26.3266 27.4195C27.0764 26.609 27.4797 25.5376 27.4507 24.4338C27.4216 23.3301 26.9624 22.2814 26.171 21.5114C25.3796 20.7415 24.3187 20.3112 23.2146 20.3125H20.5352C20.2392 20.3125 19.9553 20.1949 19.7459 19.9855C19.5366 19.7762 19.419 19.4923 19.419 19.1962C19.419 18.9002 19.5366 18.6163 19.7459 18.4069C19.9553 18.1976 20.2392 18.08 20.5352 18.08H25.8924C26.3068 18.08 26.7043 17.9154 26.9973 17.6223C27.2903 17.3293 27.4549 16.9319 27.4549 16.5175C27.4549 16.1031 27.2903 15.7056 26.9973 15.4126C26.7043 15.1196 26.3068 14.955 25.8924 14.955H23.4374V13.8397C23.4374 13.4253 23.2728 13.0278 22.9798 12.7348C22.6868 12.4418 22.2893 12.2772 21.8749 12.2772C21.4605 12.2772 21.0631 12.4418 20.7701 12.7348C20.477 13.0278 20.3124 13.4253 20.3124 13.8397V14.9775C19.2098 15.0344 18.173 15.5199 17.4232 16.3304C16.6735 17.1409 16.2701 18.2124 16.2992 19.3161C16.3282 20.4199 16.7874 21.4686 17.5788 22.2385C18.3702 23.0085 19.4311 23.4387 20.5352 23.4375H23.2146C23.5107 23.4375 23.7946 23.5551 24.0039 23.7644C24.2133 23.9738 24.3309 24.2577 24.3309 24.5537C24.3309 24.8498 24.2133 25.1337 24.0039 25.343C23.7946 25.5524 23.5107 25.67 23.2146 25.67Z" fill="#D2353B"/>
<path d="M35.9375 33.5938V35.9375H33.5938C33.1793 35.9375 32.7819 36.1021 32.4889 36.3951C32.1959 36.6882 32.0312 37.0856 32.0312 37.5C32.0312 37.9144 32.1959 38.3118 32.4889 38.6049C32.7819 38.8979 33.1793 39.0625 33.5938 39.0625H35.9375V41.4062C35.9375 41.8207 36.1021 42.2181 36.3951 42.5111C36.6882 42.8041 37.0856 42.9688 37.5 42.9688C37.9144 42.9688 38.3118 42.8041 38.6049 42.5111C38.8979 42.2181 39.0625 41.8207 39.0625 41.4062V39.0625H41.4062C41.8207 39.0625 42.2181 38.8979 42.5111 38.6049C42.8041 38.3118 42.9688 37.9144 42.9688 37.5C42.9688 37.0856 42.8041 36.6882 42.5111 36.3951C42.2181 36.1021 41.8207 35.9375 41.4062 35.9375H39.0625V33.5938C39.0625 33.1793 38.8979 32.7819 38.6049 32.4889C38.3118 32.1959 37.9144 32.0312 37.5 32.0312C37.0856 32.0312 36.6882 32.1959 36.3951 32.4889C36.1021 32.7819 35.9375 33.1793 35.9375 33.5938Z" fill="#D2353B"/>
</svg>
