<svg width="50" height="50" viewBox="0 0 50 50" fill="none" xmlns="http://www.w3.org/2000/svg">
<path d="M18.75 23.4375H9.375C8.1318 23.4375 6.93951 22.9436 6.06044 22.0646C5.18136 21.1855 4.6875 19.9932 4.6875 18.75V9.375C4.6875 8.1318 5.18136 6.93951 6.06044 6.06044C6.93951 5.18136 8.1318 4.6875 9.375 4.6875H18.75C19.9932 4.6875 21.1855 5.18136 22.0646 6.06044C22.9436 6.93951 23.4375 8.1318 23.4375 9.375V18.75C23.4375 19.9932 22.9436 21.1855 22.0646 22.0646C21.1855 22.9436 19.9932 23.4375 18.75 23.4375ZM9.375 7.8125C8.9606 7.8125 8.56317 7.97712 8.27015 8.27015C7.97712 8.56317 7.8125 8.9606 7.8125 9.375V18.75C7.8125 19.1644 7.97712 19.5618 8.27015 19.8549C8.56317 20.1479 8.9606 20.3125 9.375 20.3125H18.75C19.1644 20.3125 19.5618 20.1479 19.8549 19.8549C20.1479 19.5618 20.3125 19.1644 20.3125 18.75V9.375C20.3125 8.9606 20.1479 8.56317 19.8549 8.27015C19.5618 7.97712 19.1644 7.8125 18.75 7.8125H9.375Z" fill="#D2353B"/>
<path d="M40.625 23.4375H31.25C30.0068 23.4375 28.8145 22.9436 27.9354 22.0646C27.0564 21.1855 26.5625 19.9932 26.5625 18.75V9.375C26.5625 8.1318 27.0564 6.93951 27.9354 6.06044C28.8145 5.18136 30.0068 4.6875 31.25 4.6875H40.625C41.8682 4.6875 43.0605 5.18136 43.9396 6.06044C44.8186 6.93951 45.3125 8.1318 45.3125 9.375V18.75C45.3125 19.9932 44.8186 21.1855 43.9396 22.0646C43.0605 22.9436 41.8682 23.4375 40.625 23.4375ZM31.25 7.8125C30.8356 7.8125 30.4382 7.97712 30.1451 8.27015C29.8521 8.56317 29.6875 8.9606 29.6875 9.375V18.75C29.6875 19.1644 29.8521 19.5618 30.1451 19.8549C30.4382 20.1479 30.8356 20.3125 31.25 20.3125H40.625C41.0394 20.3125 41.4368 20.1479 41.7299 19.8549C42.0229 19.5618 42.1875 19.1644 42.1875 18.75V9.375C42.1875 8.9606 42.0229 8.56317 41.7299 8.27015C41.4368 7.97712 41.0394 7.8125 40.625 7.8125H31.25Z" fill="#D2353B"/>
<path d="M18.75 45.3125H9.375C8.1318 45.3125 6.93951 44.8186 6.06044 43.9396C5.18136 43.0605 4.6875 41.8682 4.6875 40.625V31.25C4.6875 30.0068 5.18136 28.8145 6.06044 27.9354C6.93951 27.0564 8.1318 26.5625 9.375 26.5625H18.75C19.9932 26.5625 21.1855 27.0564 22.0646 27.9354C22.9436 28.8145 23.4375 30.0068 23.4375 31.25V40.625C23.4375 41.8682 22.9436 43.0605 22.0646 43.9396C21.1855 44.8186 19.9932 45.3125 18.75 45.3125ZM9.375 29.6875C8.9606 29.6875 8.56317 29.8521 8.27015 30.1451C7.97712 30.4382 7.8125 30.8356 7.8125 31.25V40.625C7.8125 41.0394 7.97712 41.4368 8.27015 41.7299C8.56317 42.0229 8.9606 42.1875 9.375 42.1875H18.75C19.1644 42.1875 19.5618 42.0229 19.8549 41.7299C20.1479 41.4368 20.3125 41.0394 20.3125 40.625V31.25C20.3125 30.8356 20.1479 30.4382 19.8549 30.1451C19.5618 29.8521 19.1644 29.6875 18.75 29.6875H9.375Z" fill="#D2353B"/>
<path d="M35.9375 45.3125C34.0833 45.3125 32.2707 44.7627 30.729 43.7325C29.1873 42.7024 27.9857 41.2382 27.2761 39.5252C26.5666 37.8121 26.3809 35.9271 26.7426 34.1085C27.1044 32.29 27.9973 30.6195 29.3084 29.3084C30.6195 27.9973 32.29 27.1044 34.1085 26.7426C35.9271 26.3809 37.8121 26.5666 39.5252 27.2761C41.2382 27.9857 42.7024 29.1873 43.7325 30.729C44.7627 32.2707 45.3125 34.0833 45.3125 35.9375C45.31 38.4231 44.3215 40.8063 42.5639 42.5639C40.8063 44.3215 38.4231 45.31 35.9375 45.3125ZM35.9375 29.6875C34.7014 29.6875 33.493 30.0541 32.4652 30.7408C31.4374 31.4276 30.6363 32.4037 30.1633 33.5457C29.6902 34.6878 29.5664 35.9444 29.8076 37.1568C30.0488 38.3692 30.644 39.4828 31.5181 40.3569C32.3922 41.231 33.5058 41.8263 34.7182 42.0674C35.9306 42.3086 37.1872 42.1848 38.3293 41.7118C39.4713 41.2387 40.4474 40.4376 41.1342 39.4098C41.8209 38.382 42.1875 37.1736 42.1875 35.9375C42.1875 34.2799 41.529 32.6902 40.3569 31.5181C39.1848 30.346 37.5951 29.6875 35.9375 29.6875Z" fill="#D2353B"/>
</svg>
